<svg xmlns="http://www.w3.org/2000/svg" viewBox="0 0 1200 1680" font-family="'JetBrains Mono', 'Fira Code', 'SF Mono', monospace">
  <defs>
    <marker id="a" markerWidth="8" markerHeight="6" refX="8" refY="3" orient="auto">
      <path d="M0,0 L8,3 L0,6" fill="#64748b"/>
    </marker>
    <marker id="ao" markerWidth="8" markerHeight="6" refX="8" refY="3" orient="auto">
      <path d="M0,0 L8,3 L0,6" fill="#f97316"/>
    </marker>
    <marker id="ar" markerWidth="8" markerHeight="6" refX="8" refY="3" orient="auto">
      <path d="M0,0 L8,3 L0,6" fill="#ef4444"/>
    </marker>
    <marker id="ag" markerWidth="8" markerHeight="6" refX="8" refY="3" orient="auto">
      <path d="M0,0 L8,3 L0,6" fill="#22c55e"/>
    </marker>
    <marker id="ap" markerWidth="8" markerHeight="6" refX="8" refY="3" orient="auto">
      <path d="M0,0 L8,3 L0,6" fill="#8b5cf6"/>
    </marker>
    <marker id="ab" markerWidth="8" markerHeight="6" refX="8" refY="3" orient="auto">
      <path d="M0,0 L8,3 L0,6" fill="#3b82f6"/>
    </marker>
    <marker id="ay" markerWidth="8" markerHeight="6" refX="8" refY="3" orient="auto">
      <path d="M0,0 L8,3 L0,6" fill="#eab308"/>
    </marker>
    <marker id="ac" markerWidth="8" markerHeight="6" refX="8" refY="3" orient="auto">
      <path d="M0,0 L8,3 L0,6" fill="#06b6d4"/>
    </marker>
    <linearGradient id="sensor-bg" x1="0" y1="0" x2="0" y2="1">
      <stop offset="0%" stop-color="#0c0a09"/>
      <stop offset="100%" stop-color="#1c1917"/>
    </linearGradient>
    <linearGradient id="ingress-bg" x1="0" y1="0" x2="0" y2="1">
      <stop offset="0%" stop-color="#0a1628"/>
      <stop offset="100%" stop-color="#172554"/>
    </linearGradient>
    <linearGradient id="detect-bg" x1="0" y1="0" x2="0" y2="1">
      <stop offset="0%" stop-color="#052e16"/>
      <stop offset="100%" stop-color="#14532d"/>
    </linearGradient>
    <linearGradient id="llm-bg" x1="0" y1="0" x2="0" y2="1">
      <stop offset="0%" stop-color="#1e1b4b"/>
      <stop offset="100%" stop-color="#312e81"/>
    </linearGradient>
    <linearGradient id="ops-bg" x1="0" y1="0" x2="0" y2="1">
      <stop offset="0%" stop-color="#0f172a"/>
      <stop offset="100%" stop-color="#1e293b"/>
    </linearGradient>
    <linearGradient id="mlops-bg" x1="0" y1="0" x2="0" y2="1">
      <stop offset="0%" stop-color="#1a1523"/>
      <stop offset="100%" stop-color="#2e1065"/>
    </linearGradient>
    <filter id="gl">
      <feGaussianBlur stdDeviation="2" result="b"/>
      <feComposite in="SourceGraphic" in2="b" operator="over"/>
    </filter>
  </defs>

  <rect width="1200" height="1680" fill="#09090b" rx="8"/>

  <text x="600" y="36" text-anchor="middle" fill="#f8fafc" font-size="16" font-weight="700" letter-spacing="3">PROJECT EMPROS -- UNIFIED DATA FLOW</text>
  <line x1="330" y1="46" x2="870" y2="46" stroke="#334155" stroke-width="1"/>
  <text x="600" y="62" text-anchor="middle" fill="#475569" font-size="9">Sensor Telemetry → Integrity Verification → Detection Layers → Agentic LLM Swarm → MLOps Feedback</text>

  <!-- ═══════════════════════════════════════════════════════════════ -->
  <!-- PHASE 1: SENSOR FLEET & INTEGRITY STAMPING                    -->
  <!-- ═══════════════════════════════════════════════════════════════ -->
  <rect x="30" y="80" width="1140" height="160" rx="6" fill="url(#sensor-bg)" stroke="#78716c" stroke-width="1" opacity="0.9"/>
  <text x="50" y="102" fill="#d6d3d1" font-size="10" font-weight="600" letter-spacing="2">PHASE 1 -- SENSOR FLEET &amp; INTEGRITY STAMPING</text>
  <text x="1150" y="102" text-anchor="end" fill="#475569" font-size="9">Continuous · Per-Host · Multi-OS</text>

  <rect x="50" y="115" width="130" height="55" rx="4" fill="#1c1917" stroke="#3b82f6" stroke-width="1"/>
  <text x="115" y="135" text-anchor="middle" fill="#93c5fd" font-size="10" font-weight="600">Linux Sentinel</text>
  <text x="60" y="150" fill="#94a3b8" font-size="8">eBPF + 19D UEBA</text>
  <text x="60" y="161" fill="#3b82f6" font-size="8" font-weight="600">Parquet (ZSTD)</text>

  <rect x="195" y="115" width="130" height="55" rx="4" fill="#1c1917" stroke="#3b82f6" stroke-width="1"/>
  <text x="260" y="135" text-anchor="middle" fill="#93c5fd" font-size="10" font-weight="600">C2 Sensor</text>
  <text x="205" y="150" fill="#94a3b8" font-size="8">Windows ETW + Rust FFI</text>
  <text x="205" y="161" fill="#3b82f6" font-size="8" font-weight="600">Parquet (ZSTD)</text>

  <rect x="340" y="115" width="130" height="55" rx="4" fill="#1c1917" stroke="#3b82f6" stroke-width="1"/>
  <text x="405" y="135" text-anchor="middle" fill="#93c5fd" font-size="10" font-weight="600">DeepSensor</text>
  <text x="350" y="150" fill="#94a3b8" font-size="8">Cloud AWS + Azure</text>
  <text x="350" y="161" fill="#3b82f6" font-size="8" font-weight="600">Parquet (ZSTD)</text>

  <rect x="485" y="115" width="130" height="55" rx="4" fill="#1c1917" stroke="#3b82f6" stroke-width="1"/>
  <text x="550" y="135" text-anchor="middle" fill="#93c5fd" font-size="10" font-weight="600">Arkime NetFlow</text>
  <text x="495" y="150" fill="#94a3b8" font-size="8">Network SPI sessions</text>
  <text x="495" y="161" fill="#3b82f6" font-size="8" font-weight="600">Parquet (Snappy)</text>

  <rect x="670" y="110" width="260" height="65" rx="4" fill="#085041" stroke="#4ade80" stroke-width="1"/>
  <text x="800" y="130" text-anchor="middle" fill="#bbf7d0" font-size="11" font-weight="600">Lineage Stamper</text>
  <text x="680" y="148" fill="#94a3b8" font-size="9">HMAC-SHA256 + monotonic sequence</text>
  <text x="680" y="162" fill="#4ade80" font-size="9" font-weight="600">Constant-time comparison at origin</text>

  <rect x="960" y="110" width="190" height="65" rx="4" fill="#1c1917" stroke="#f97316" stroke-width="1"/>
  <text x="1055" y="130" text-anchor="middle" fill="#fed7aa" font-size="11" font-weight="600">nexus_forwarder</text>
  <text x="970" y="148" fill="#94a3b8" font-size="9">10s async extraction cycle</text>
  <text x="970" y="162" fill="#f97316" font-size="9" font-weight="600">HTTPS POST + integrity headers</text>

  <line x1="615" y1="142" x2="668" y2="142" stroke="#4ade80" stroke-width="1" marker-end="url(#ag)"/>
  <line x1="930" y1="142" x2="958" y2="142" stroke="#f97316" stroke-width="1.5" marker-end="url(#ao)"/>

  <path d="M200 170 L200 192 L800 192 L800 175" fill="none" stroke="#4ade80" stroke-width="0.5" stroke-dasharray="4,3"/>
  <text x="500" y="200" text-anchor="middle" fill="#4ade80" font-size="8">all sensors stamp at point of origin</text>

  <!-- ═══════════════════════════════════════════════════════════════ -->
  <!-- PHASE 2: MIDDLEWARE INGRESS & NATS FAN-OUT                     -->
  <!-- ═══════════════════════════════════════════════════════════════ -->
  <rect x="30" y="255" width="1140" height="180" rx="6" fill="url(#ingress-bg)" stroke="#1d4ed8" stroke-width="1" opacity="0.9"/>
  <text x="50" y="277" fill="#93c5fd" font-size="10" font-weight="600" letter-spacing="2">PHASE 2 -- MIDDLEWARE INGRESS &amp; NATS FAN-OUT</text>
  <text x="1150" y="277" text-anchor="end" fill="#475569" font-size="9">Zero-Trust · Schema-Neutral · Parallel Consumers</text>

  <rect x="50" y="295" width="230" height="120" rx="4" fill="#0369a1" stroke="#7dd3fc" stroke-width="1.5" filter="url(#gl)"/>
  <text x="165" y="315" text-anchor="middle" fill="#e0f2fe" font-size="12" font-weight="700">Middleware Ingress</text>
  <text x="60" y="335" fill="#bae6fd" font-size="9">TLS 1.3 termination</text>
  <text x="60" y="350" fill="#bae6fd" font-size="9">Bearer auth + JWT validation</text>
  <text x="60" y="365" fill="#bae6fd" font-size="9">3-Tier integrity verification:</text>
  <text x="70" y="378" fill="#7dd3fc" font-size="8">① HMAC  ② Temporal/Seq  ③ Cross-OS</text>
  <text x="60" y="395" fill="#bae6fd" font-size="9">Binary schema neutrality</text>
  <text x="60" y="408" fill="#7dd3fc" font-size="9" font-weight="600">Destinations: middleware.toml</text>

  <rect x="340" y="295" width="180" height="90" rx="4" fill="#2e1065" stroke="#8b5cf6" stroke-width="1.5" filter="url(#gl)"/>
  <text x="430" y="320" text-anchor="middle" fill="#ddd6fe" font-size="12" font-weight="700">NATS JetStream</text>
  <text x="350" y="340" fill="#c4b5fd" font-size="9">nexus.telemetry.ingest</text>
  <text x="350" y="355" fill="#c4b5fd" font-size="9">nexus.soar.execute</text>
  <text x="350" y="370" fill="#c4b5fd" font-size="9">nexus.training.rlhf</text>

  <rect x="570" y="295" width="145" height="55" rx="4" fill="#1c1917" stroke="#94a3b8" stroke-width="1"/>
  <text x="643" y="315" text-anchor="middle" fill="#e2e8f0" font-size="10" font-weight="600">Splunk HEC</text>
  <text x="580" y="335" fill="#94a3b8" font-size="9">Parquet → CIM</text>

  <rect x="730" y="295" width="145" height="55" rx="4" fill="#1c1917" stroke="#94a3b8" stroke-width="1"/>
  <text x="803" y="315" text-anchor="middle" fill="#e2e8f0" font-size="10" font-weight="600">Elastic Bulk API</text>
  <text x="740" y="335" fill="#94a3b8" font-size="9">Parquet → ECS</text>

  <rect x="890" y="295" width="145" height="55" rx="4" fill="#1c1917" stroke="#94a3b8" stroke-width="1"/>
  <text x="963" y="315" text-anchor="middle" fill="#e2e8f0" font-size="10" font-weight="600">SQL Server</text>
  <text x="900" y="335" fill="#94a3b8" font-size="9">Parquet → TDS sproc</text>

  <text x="665" y="380" fill="#475569" font-size="8">Passthrough + re-stamp (optional fan-out)</text>

  <line x1="1055" y1="175" x2="1055" y2="230" stroke="#f97316" stroke-width="1.5" marker-end="url(#ao)"/>
  <line x1="1055" y1="230" x2="165" y2="245" stroke="#f97316" stroke-width="1" stroke-dasharray="4,3" marker-end="url(#ao)"/>
  <line x1="280" y1="340" x2="338" y2="340" stroke="#8b5cf6" stroke-width="1.5" marker-end="url(#ap)"/>
  <line x1="520" y1="320" x2="568" y2="320" stroke="#94a3b8" stroke-width="1" stroke-dasharray="4,3" marker-end="url(#a)"/>
  <line x1="520" y1="340" x2="728" y2="320" stroke="#94a3b8" stroke-width="1" stroke-dasharray="4,3" marker-end="url(#a)"/>
  <line x1="520" y1="360" x2="888" y2="320" stroke="#94a3b8" stroke-width="1" stroke-dasharray="4,3" marker-end="url(#a)"/>

  <!-- ═══════════════════════════════════════════════════════════════ -->
  <!-- PHASE 3: DETECTION LAYERS (RUST WORKERS)                       -->
  <!-- ═══════════════════════════════════════════════════════════════ -->
  <rect x="30" y="450" width="1140" height="220" rx="6" fill="url(#detect-bg)" stroke="#15803d" stroke-width="1" opacity="0.9"/>
  <text x="50" y="472" fill="#86efac" font-size="10" font-weight="600" letter-spacing="2">PHASE 3 -- DETECTION LAYERS (RUST WORKERS)</text>
  <text x="1150" y="472" text-anchor="end" fill="#475569" font-size="9">Parallel · NATS Consumer Groups · High-Throughput</text>

  <rect x="50" y="490" width="250" height="80" rx="4" fill="#14532d" stroke="#4ade80" stroke-width="1"/>
  <text x="175" y="510" text-anchor="middle" fill="#bbf7d0" font-size="11" font-weight="600">Worker: Qdrant (Layer 1)</text>
  <text x="60" y="530" fill="#94a3b8" font-size="9">In-flight normalization to Euclidean space</text>
  <text x="60" y="545" fill="#94a3b8" font-size="9">Named vectors (5D endpoint / 8D network)</text>
  <text x="60" y="560" fill="#4ade80" font-size="9" font-weight="600">Unknown unknowns -- cosine similarity</text>

  <rect x="330" y="490" width="250" height="80" rx="4" fill="#450a0a" stroke="#fb7185" stroke-width="1"/>
  <text x="455" y="510" text-anchor="middle" fill="#fecdd3" font-size="11" font-weight="600">Worker: Rules (Layer 2)</text>
  <text x="340" y="530" fill="#94a3b8" font-size="9">Zero-copy Sigma string matching</text>
  <text x="340" y="545" fill="#94a3b8" font-size="9">In-memory Parquet parsing</text>
  <text x="340" y="560" fill="#fb7185" font-size="9" font-weight="600">Known unknowns -- deterministic</text>

  <rect x="610" y="490" width="250" height="80" rx="4" fill="#1c1917" stroke="#94a3b8" stroke-width="1"/>
  <text x="735" y="510" text-anchor="middle" fill="#e2e8f0" font-size="11" font-weight="600">Worker: S3 Archive</text>
  <text x="620" y="530" fill="#94a3b8" font-size="9">Immutable Parquet batch spooling</text>
  <text x="620" y="545" fill="#94a3b8" font-size="9">Golden dataset foundation</text>
  <text x="620" y="560" fill="#94a3b8" font-size="9" font-weight="600">Cold forensic data lake</text>

  <rect x="50" y="590" width="250" height="55" rx="4" fill="#065f46" stroke="#6ee7b7" stroke-width="1"/>
  <text x="175" y="610" text-anchor="middle" fill="#a7f3d0" font-size="11" font-weight="600">Qdrant Vector DB</text>
  <text x="60" y="630" fill="#94a3b8" font-size="9">HNSW index · cosine similarity triggers</text>

  <rect x="330" y="590" width="250" height="55" rx="4" fill="#9f1239" stroke="#fda4af" stroke-width="1"/>
  <text x="455" y="610" text-anchor="middle" fill="#fecdd3" font-size="11" font-weight="600">Redis Cluster</text>
  <text x="340" y="630" fill="#94a3b8" font-size="9">High-speed FIFO · exact match state</text>

  <rect x="610" y="590" width="250" height="55" rx="4" fill="#1e293b" stroke="#94a3b8" stroke-width="1"/>
  <text x="735" y="610" text-anchor="middle" fill="#e2e8f0" font-size="11" font-weight="600">AWS S3 / MinIO</text>
  <text x="620" y="630" fill="#94a3b8" font-size="9">Historical data lake (immutable)</text>

  <rect x="900" y="490" width="250" height="155" rx="4" fill="#1c1917" stroke="#eab308" stroke-width="1"/>
  <text x="1025" y="510" text-anchor="middle" fill="#fef08a" font-size="11" font-weight="600">Redis Distributed Lock</text>
  <text x="910" y="530" fill="#94a3b8" font-size="9">nexus:active_operations_stacks</text>
  <text x="910" y="545" fill="#94a3b8" font-size="9">Prevents boot storms during</text>
  <text x="910" y="560" fill="#eab308" font-size="9" font-weight="600">massive lateral movement events</text>
  <text x="910" y="585" fill="#94a3b8" font-size="9">Concurrency gate for Phase 4</text>
  <text x="910" y="600" fill="#94a3b8" font-size="9">Operator lock acquisition</text>
  <text x="910" y="615" fill="#eab308" font-size="9" font-weight="600">Released on teardown callback</text>

  <line x1="430" y1="420" x2="175" y2="488" stroke="#4ade80" stroke-width="1" stroke-dasharray="4,3" marker-end="url(#ag)"/>
  <line x1="430" y1="420" x2="455" y2="488" stroke="#fb7185" stroke-width="1" stroke-dasharray="4,3" marker-end="url(#ar)"/>
  <line x1="430" y1="420" x2="735" y2="488" stroke="#94a3b8" stroke-width="1" stroke-dasharray="4,3" marker-end="url(#a)"/>
  <line x1="175" y1="570" x2="175" y2="588" stroke="#4ade80" stroke-width="1" marker-end="url(#ag)"/>
  <line x1="455" y1="570" x2="455" y2="588" stroke="#fb7185" stroke-width="1" marker-end="url(#ar)"/>
  <line x1="735" y1="570" x2="735" y2="588" stroke="#94a3b8" stroke-width="1" marker-end="url(#a)"/>

  <!-- ═══════════════════════════════════════════════════════════════ -->
  <!-- PHASE 4: AGENTIC LLM SWARM                                     -->
  <!-- ═══════════════════════════════════════════════════════════════ -->
  <rect x="30" y="685" width="1140" height="250" rx="6" fill="url(#llm-bg)" stroke="#4338ca" stroke-width="1" opacity="0.9"/>
  <text x="50" y="707" fill="#a5b4fc" font-size="10" font-weight="600" letter-spacing="2">PHASE 4 -- AGENTIC LLM SWARM (LAYER 3)</text>
  <text x="1150" y="707" text-anchor="end" fill="#475569" font-size="9">Event-Driven · Multi-Model Cross-Examination · vLLM Inference</text>

  <rect x="50" y="720" width="200" height="90" rx="4" fill="#1c1917" stroke="#f97316" stroke-width="1"/>
  <text x="150" y="740" text-anchor="middle" fill="#fed7aa" font-size="10" font-weight="600">LLM Hunter Orchestrator</text>
  <text x="60" y="758" fill="#94a3b8" font-size="9">LangGraph DAG supervisor</text>
  <text x="60" y="773" fill="#94a3b8" font-size="9">Async Redis + Qdrant polling</text>
  <text x="60" y="788" fill="#94a3b8" font-size="9">Entity state routing</text>
  <text x="60" y="803" fill="#f97316" font-size="9" font-weight="600">Blast radius caps</text>

  <rect x="280" y="720" width="185" height="90" rx="4" fill="#14532d" stroke="#4ade80" stroke-width="1"/>
  <text x="373" y="740" text-anchor="middle" fill="#bbf7d0" font-size="10" font-weight="600">Model A: Math Tripwire</text>
  <text x="290" y="758" fill="#94a3b8" font-size="9">LSTM Autoencoder / STGCN</text>
  <text x="290" y="773" fill="#94a3b8" font-size="9">Reconstruction error scoring</text>
  <text x="290" y="788" fill="#4ade80" font-size="9" font-weight="600">Anomaly → trigger swarm</text>

  <rect x="485" y="720" width="215" height="90" rx="4" fill="#312e81" stroke="#818cf8" stroke-width="1.5"/>
  <text x="593" y="740" text-anchor="middle" fill="#c7d2fe" font-size="10" font-weight="600">Model B: Network Adversarial</text>
  <text x="495" y="758" fill="#94a3b8" font-size="9">Mistral-Nemo 12B (NF4 QLoRA)</text>
  <text x="495" y="773" fill="#94a3b8" font-size="9">128k context · PCAP + ATT&amp;CK</text>
  <text x="495" y="788" fill="#818cf8" font-size="9" font-weight="600">TTP mapping &amp; attribution</text>

  <rect x="720" y="720" width="215" height="90" rx="4" fill="#312e81" stroke="#818cf8" stroke-width="1.5"/>
  <text x="828" y="740" text-anchor="middle" fill="#c7d2fe" font-size="10" font-weight="600">Model C: Spatial Endpoint</text>
  <text x="730" y="758" fill="#94a3b8" font-size="9">Llama-3 8B (QLoRA + Projector)</text>
  <text x="730" y="773" fill="#94a3b8" font-size="9">Process lineage + memory forensics</text>
  <text x="730" y="788" fill="#818cf8" font-size="9" font-weight="600">Host isolation recommendations</text>

  <rect x="50" y="830" width="470" height="85" rx="4" fill="#312e81" stroke="#a78bfa" stroke-width="1.5" filter="url(#gl)"/>
  <text x="285" y="855" text-anchor="middle" fill="#ddd6fe" font-size="12" font-weight="700">vLLM Inference Engine (4x A100 80GB NVLink)</text>
  <text x="60" y="875" fill="#c4b5fd" font-size="9">Tensor parallelism · Flash Attention 2 · PagedAttention KV cache</text>
  <text x="60" y="890" fill="#c4b5fd" font-size="9">Podman Quadlets · deepnet overlay network (zero external routing)</text>
  <text x="60" y="905" fill="#a78bfa" font-size="9" font-weight="600">Models B + C + D served via vLLM · Model A on dedicated GPU node</text>

  <rect x="560" y="835" width="370" height="75" rx="4" fill="#450a0a" stroke="#ef4444" stroke-width="1.5"/>
  <text x="745" y="855" text-anchor="middle" fill="#fca5a5" font-size="11" font-weight="600">Model D: SOAR Critic (Blast Radius Engine)</text>
  <text x="570" y="875" fill="#94a3b8" font-size="9">PPO reward model (RLHF-aligned)</text>
  <text x="570" y="890" fill="#94a3b8" font-size="9">MDP: FP penalty ≫ TP reward on critical assets</text>
  <text x="570" y="905" fill="#ef4444" font-size="9" font-weight="600">R_total > τ → autonomous containment</text>

  <line x1="175" y1="645" x2="150" y2="718" stroke="#4ade80" stroke-width="1" marker-end="url(#ag)"/>
  <line x1="455" y1="645" x2="150" y2="718" stroke="#fb7185" stroke-width="1" marker-end="url(#ar)"/>
  <line x1="735" y1="645" x2="828" y2="830" stroke="#94a3b8" stroke-width="1" stroke-dasharray="4,3" marker-end="url(#a)"/>
  <text x="780" y="740" fill="#475569" font-size="8">DuckDB pivot</text>
  <line x1="250" y1="765" x2="278" y2="765" stroke="#f97316" stroke-width="1" marker-end="url(#ao)"/>
  <line x1="465" y1="765" x2="483" y2="765" stroke="#818cf8" stroke-width="1" marker-end="url(#ap)"/>
  <line x1="700" y1="765" x2="718" y2="765" stroke="#818cf8" stroke-width="1" marker-end="url(#ap)"/>

  <!-- ═══════════════════════════════════════════════════════════════ -->
  <!-- PHASE 5: OPERATOR C&C & CONTAINMENT                            -->
  <!-- ═══════════════════════════════════════════════════════════════ -->
  <rect x="30" y="950" width="1140" height="190" rx="6" fill="url(#ops-bg)" stroke="#334155" stroke-width="1" opacity="0.9"/>
  <text x="50" y="972" fill="#94a3b8" font-size="10" font-weight="600" letter-spacing="2">PHASE 5 -- OPERATOR COMMAND &amp; CONTROL + CONTAINMENT</text>
  <text x="1150" y="972" text-anchor="end" fill="#475569" font-size="9">Human-in-the-Loop · SOAR Webhooks · Active Response</text>

  <rect x="50" y="990" width="200" height="80" rx="4" fill="#1e293b" stroke="#60a5fa" stroke-width="1"/>
  <text x="150" y="1010" text-anchor="middle" fill="#93c5fd" font-size="10" font-weight="600">Open WebUI</text>
  <text x="60" y="1028" fill="#94a3b8" font-size="9">Operator chat interface</text>
  <text x="60" y="1043" fill="#94a3b8" font-size="9">RAG-enriched context</text>
  <text x="60" y="1058" fill="#60a5fa" font-size="9" font-weight="600">HitL verdict injection</text>

  <rect x="280" y="990" width="200" height="80" rx="4" fill="#1c1917" stroke="#f97316" stroke-width="1"/>
  <text x="380" y="1010" text-anchor="middle" fill="#fed7aa" font-size="10" font-weight="600">n8n Orchestrator</text>
  <text x="290" y="1028" fill="#94a3b8" font-size="9">SOAR webhook routing</text>
  <text x="290" y="1043" fill="#94a3b8" font-size="9">Operator bootstrap workflows</text>
  <text x="290" y="1058" fill="#f97316" font-size="9" font-weight="600">Infra spin-up + teardown</text>

  <rect x="510" y="990" width="200" height="80" rx="4" fill="#450a0a" stroke="#ef4444" stroke-width="1.5"/>
  <text x="610" y="1010" text-anchor="middle" fill="#fca5a5" font-size="11" font-weight="600">Containment Engine</text>
  <text x="520" y="1028" fill="#94a3b8" font-size="9">XDP network quarantine</text>
  <text x="520" y="1043" fill="#94a3b8" font-size="9">Cgroup process freeze</text>
  <text x="520" y="1058" fill="#ef4444" font-size="9" font-weight="600">SOAR webhook → active response</text>

  <rect x="740" y="990" width="155" height="80" rx="4" fill="#14532d" stroke="#4ade80" stroke-width="1"/>
  <text x="818" y="1010" text-anchor="middle" fill="#bbf7d0" font-size="10" font-weight="600">Prometheus</text>
  <text x="750" y="1028" fill="#94a3b8" font-size="9">Ring buffer saturation</text>
  <text x="750" y="1043" fill="#94a3b8" font-size="9">ML fit latencies</text>
  <text x="750" y="1058" fill="#4ade80" font-size="9" font-weight="600">OTLP metrics export</text>

  <rect x="925" y="990" width="225" height="80" rx="4" fill="#450a0a" stroke="#ef4444" stroke-width="1.5" filter="url(#gl)"/>
  <text x="1038" y="1010" text-anchor="middle" fill="#fca5a5" font-size="11" font-weight="700">teardown-incident.sh</text>
  <text x="935" y="1028" fill="#94a3b8" font-size="9">1. webui → n8n → infra down</text>
  <text x="935" y="1043" fill="#94a3b8" font-size="9">2. Purge context + execution logs</text>
  <text x="935" y="1058" fill="#ef4444" font-size="9" font-weight="600">--deep: wipe secrets, certs, network</text>

  <line x1="745" y1="910" x2="610" y2="988" stroke="#ef4444" stroke-width="1.5" marker-end="url(#ar)"/>
  <line x1="250" y1="1030" x2="278" y2="1030" stroke="#f97316" stroke-width="1" marker-end="url(#ao)"/>
  <line x1="480" y1="1030" x2="508" y2="1030" stroke="#ef4444" stroke-width="1.5" marker-end="url(#ar)"/>
  <line x1="710" y1="1030" x2="738" y2="1030" stroke="#4ade80" stroke-width="1" marker-end="url(#ag)"/>
  <line x1="895" y1="1030" x2="923" y2="1030" stroke="#ef4444" stroke-width="1" stroke-dasharray="4,3" marker-end="url(#ar)"/>

  <!-- ═══════════════════════════════════════════════════════════════ -->
  <!-- PHASE 6: MLOPS PIPELINE & RLHF FEEDBACK                        -->
  <!-- ═══════════════════════════════════════════════════════════════ -->
  <rect x="30" y="1155" width="1140" height="310" rx="6" fill="url(#mlops-bg)" stroke="#7c3aed" stroke-width="1" opacity="0.9"/>
  <text x="50" y="1177" fill="#c4b5fd" font-size="10" font-weight="600" letter-spacing="2">PHASE 6 -- SOVEREIGN MLOPS PIPELINE &amp; RLHF FEEDBACK</text>
  <text x="1150" y="1177" text-anchor="end" fill="#475569" font-size="9">Closed-Loop · Self-Terminating · Priority Oversampling</text>

  <rect x="50" y="1195" width="160" height="65" rx="4" fill="#2e1065" stroke="#a855f7" stroke-width="1"/>
  <text x="130" y="1215" text-anchor="middle" fill="#d8b4fe" font-size="10" font-weight="600">Operator Verdict</text>
  <text x="60" y="1233" fill="#94a3b8" font-size="9">Confirm or dismiss</text>
  <text x="60" y="1248" fill="#a855f7" font-size="9" font-weight="600">/rlhf-feedback</text>

  <rect x="230" y="1195" width="160" height="65" rx="4" fill="#2e1065" stroke="#8b5cf6" stroke-width="1"/>
  <text x="310" y="1215" text-anchor="middle" fill="#ddd6fe" font-size="10" font-weight="600">NATS Publish</text>
  <text x="240" y="1233" fill="#94a3b8" font-size="9">nexus.training.rlhf</text>
  <text x="240" y="1248" fill="#8b5cf6" font-size="9" font-weight="600">incident_id + verdict</text>

  <rect x="410" y="1195" width="170" height="65" rx="4" fill="#1c1917" stroke="#f97316" stroke-width="1"/>
  <text x="495" y="1215" text-anchor="middle" fill="#fed7aa" font-size="10" font-weight="600">worker_rlhf (Rust)</text>
  <text x="420" y="1233" fill="#94a3b8" font-size="9">Gold label Parquet spooling</text>
  <text x="420" y="1248" fill="#f97316" font-size="9" font-weight="600">→ fine-tunes Model D PPO</text>

  <line x1="210" y1="1227" x2="228" y2="1227" stroke="#8b5cf6" stroke-width="1" marker-end="url(#ap)"/>
  <line x1="390" y1="1227" x2="408" y2="1227" stroke="#f97316" stroke-width="1" marker-end="url(#ao)"/>

  <rect x="50" y="1280" width="180" height="60" rx="4" fill="#1c1917" stroke="#94a3b8" stroke-width="1"/>
  <text x="140" y="1300" text-anchor="middle" fill="#e2e8f0" font-size="10" font-weight="600">Data Sources</text>
  <text x="60" y="1318" fill="#94a3b8" font-size="8">S3 cold + validated incidents</text>
  <text x="60" y="1330" fill="#94a3b8" font-size="8">+ adversarial corpus</text>

  <rect x="260" y="1280" width="180" height="60" rx="4" fill="#1c1917" stroke="#f97316" stroke-width="1"/>
  <text x="350" y="1300" text-anchor="middle" fill="#fed7aa" font-size="10" font-weight="600">Universal Spooler</text>
  <text x="270" y="1318" fill="#94a3b8" font-size="8">Temporal split · DPO balance</text>
  <text x="270" y="1330" fill="#f97316" font-size="8" font-weight="600">Version archive</text>

  <rect x="470" y="1280" width="110" height="55" rx="4" fill="#312e81" stroke="#818cf8" stroke-width="1"/>
  <text x="525" y="1298" text-anchor="middle" fill="#c7d2fe" font-size="9" font-weight="600">Model C</text>
  <text x="525" y="1313" text-anchor="middle" fill="#94a3b8" font-size="8">QLoRA +</text>
  <text x="525" y="1325" text-anchor="middle" fill="#818cf8" font-size="8">projector</text>

  <rect x="600" y="1280" width="110" height="55" rx="4" fill="#312e81" stroke="#818cf8" stroke-width="1"/>
  <text x="655" y="1298" text-anchor="middle" fill="#c7d2fe" font-size="9" font-weight="600">Model B</text>
  <text x="655" y="1313" text-anchor="middle" fill="#94a3b8" font-size="8">QLoRA 128k</text>
  <text x="655" y="1325" text-anchor="middle" fill="#818cf8" font-size="8">context</text>

  <rect x="730" y="1280" width="110" height="55" rx="4" fill="#312e81" stroke="#818cf8" stroke-width="1"/>
  <text x="785" y="1298" text-anchor="middle" fill="#c7d2fe" font-size="9" font-weight="600">Model D</text>
  <text x="785" y="1313" text-anchor="middle" fill="#94a3b8" font-size="8">DPO/IPO</text>
  <text x="785" y="1325" text-anchor="middle" fill="#818cf8" font-size="8">alignment</text>

  <line x1="230" y1="1310" x2="258" y2="1310" stroke="#94a3b8" stroke-width="1" marker-end="url(#a)"/>
  <line x1="440" y1="1310" x2="468" y2="1310" stroke="#818cf8" stroke-width="1" marker-end="url(#ap)"/>
  <line x1="440" y1="1310" x2="598" y2="1310" stroke="#818cf8" stroke-width="1" marker-end="url(#ap)"/>
  <line x1="440" y1="1310" x2="728" y2="1310" stroke="#818cf8" stroke-width="1" marker-end="url(#ap)"/>

  <rect x="470" y="1355" width="370" height="45" rx="4" fill="#14532d" stroke="#4ade80" stroke-width="1.5" filter="url(#gl)"/>
  <text x="655" y="1375" text-anchor="middle" fill="#bbf7d0" font-size="11" font-weight="700">Cross-Model Integration Gate</text>
  <text x="655" y="1392" text-anchor="middle" fill="#94a3b8" font-size="9">All pass → merge · any fail → halt + retrain</text>

  <line x1="525" y1="1335" x2="575" y2="1353" stroke="#4ade80" stroke-width="1" marker-end="url(#ag)"/>
  <line x1="655" y1="1335" x2="655" y2="1353" stroke="#4ade80" stroke-width="1" marker-end="url(#ag)"/>
  <line x1="785" y1="1335" x2="735" y2="1353" stroke="#4ade80" stroke-width="1" marker-end="url(#ag)"/>

  <rect x="470" y="1415" width="370" height="35" rx="4" fill="#1c1917" stroke="#f97316" stroke-width="1"/>
  <text x="655" y="1437" text-anchor="middle" fill="#fed7aa" font-size="10" font-weight="600">LoRA merge + SHA-384 sign → atomic symlink deploy → vLLM</text>

  <line x1="655" y1="1400" x2="655" y2="1413" stroke="#f97316" stroke-width="1" marker-end="url(#ao)"/>

  <path d="M470 1432 C400 1432 380 1380 300 1340 C220 1300 180 1280 140 1260 L140 1248" fill="none" stroke="#4ade80" stroke-width="1" stroke-dasharray="6,3" marker-end="url(#ag)"/>
  <text x="200" y="1285" fill="#4ade80" font-size="8">priority oversample</text>

  <path d="M840 1432 C920 1432 950 1380 980 1050 C990 970 990 920 935 910" fill="none" stroke="#4ade80" stroke-width="1" stroke-dasharray="6,3" marker-end="url(#ag)"/>
  <text x="960" y="1100" fill="#4ade80" font-size="8">deployed weights → vLLM</text>

  <!-- ═══════════════════════════════════════════════════════════════ -->
  <!-- ZERO STATE                                                       -->
  <!-- ═══════════════════════════════════════════════════════════════ -->
  <rect x="30" y="1480" width="1140" height="45" rx="6" fill="#0a0a0a" stroke="#475569" stroke-width="1" stroke-dasharray="6,3"/>
  <text x="600" y="1500" text-anchor="middle" fill="#64748b" font-size="11" font-weight="600" letter-spacing="2">ZERO STATE -- ATTACK SURFACE RETURNED TO ZERO</text>
  <text x="600" y="1518" text-anchor="middle" fill="#475569" font-size="9">Only forensic artifacts persist. All containers, databases, contexts, and secrets destroyed.</text>

  <line x1="1038" y1="1070" x2="1038" y2="1140" stroke="#ef4444" stroke-width="1.5" marker-end="url(#ar)"/>
  <text x="1048" y="1110" fill="#fca5a5" font-size="8">scorched earth</text>

  <!-- ═══════════════════════════════════════════════════════════════ -->
  <!-- LEGEND                                                           -->
  <!-- ═══════════════════════════════════════════════════════════════ -->
  <text x="50" y="1560" fill="#475569" font-size="9" font-weight="600" letter-spacing="1">LEGEND</text>
  <line x1="50" y1="1568" x2="1150" y2="1568" stroke="#1e293b" stroke-width="0.5"/>

  <rect x="50" y="1578" width="14" height="14" rx="2" fill="#1c1917" stroke="#f97316" stroke-width="1"/>
  <text x="72" y="1590" fill="#94a3b8" font-size="9">Rust workers / data pipeline</text>

  <rect x="260" y="1578" width="14" height="14" rx="2" fill="#14532d" stroke="#4ade80" stroke-width="1"/>
  <text x="282" y="1590" fill="#94a3b8" font-size="9">ML / validation / observability</text>

  <rect x="480" y="1578" width="14" height="14" rx="2" fill="#1e293b" stroke="#60a5fa" stroke-width="1"/>
  <text x="502" y="1590" fill="#94a3b8" font-size="9">API / operator interface</text>

  <rect x="680" y="1578" width="14" height="14" rx="2" fill="#450a0a" stroke="#ef4444" stroke-width="1"/>
  <text x="702" y="1590" fill="#94a3b8" font-size="9">Containment / enforcement</text>

  <rect x="900" y="1578" width="14" height="14" rx="2" fill="#2e1065" stroke="#8b5cf6" stroke-width="1"/>
  <text x="922" y="1590" fill="#94a3b8" font-size="9">Messaging / NATS / RLHF</text>

  <line x1="50" y1="1615" x2="90" y2="1615" stroke="#64748b" stroke-width="1.5" marker-end="url(#a)"/>
  <text x="100" y="1619" fill="#94a3b8" font-size="9">Data flow</text>

  <line x1="210" y1="1615" x2="250" y2="1615" stroke="#64748b" stroke-width="1" stroke-dasharray="4,3" marker-end="url(#a)"/>
  <text x="260" y="1619" fill="#94a3b8" font-size="9">Async / enforcement / fan-out</text>

  <line x1="460" y1="1615" x2="500" y2="1615" stroke="#4ade80" stroke-width="1" stroke-dasharray="6,3" marker-end="url(#ag)"/>
  <text x="510" y="1619" fill="#94a3b8" font-size="9">Feedback / oversample loop</text>

  <rect x="700" y="1605" width="14" height="14" rx="2" fill="#312e81" stroke="#818cf8" stroke-width="1.5" filter="url(#gl)"/>
  <text x="722" y="1619" fill="#94a3b8" font-size="9">LLM model / vLLM inference</text>

  <rect x="920" y="1605" width="14" height="14" rx="2" fill="#1a1a2e" stroke="#eab308" stroke-width="1.5"/>
  <text x="942" y="1619" fill="#94a3b8" font-size="9">Critical state / concurrency lock</text>

  <text x="50" y="1655" fill="#334155" font-size="8">PHASE 1 (Sensor) → PHASE 2 (Ingress/Fan-Out) → PHASE 3 (Detection) → PHASE 4 (LLM Swarm) → PHASE 5 (Operator/Containment) → PHASE 6 (MLOps/RLHF) → ZERO STATE</text>
  <text x="1150" y="1655" text-anchor="end" fill="#334155" font-size="8">Project Empros v2.0</text>
</svg>
