<svg xmlns="http://www.w3.org/2000/svg" viewBox="0 0 1200 1520" font-family="'JetBrains Mono', 'Fira Code', 'SF Mono', monospace">
  <defs>
    <marker id="a" markerWidth="8" markerHeight="6" refX="8" refY="3" orient="auto">
      <path d="M0,0 L8,3 L0,6" fill="#64748b"/>
    </marker>
    <marker id="ao" markerWidth="8" markerHeight="6" refX="8" refY="3" orient="auto">
      <path d="M0,0 L8,3 L0,6" fill="#f97316"/>
    </marker>
    <marker id="ar" markerWidth="8" markerHeight="6" refX="8" refY="3" orient="auto">
      <path d="M0,0 L8,3 L0,6" fill="#ef4444"/>
    </marker>
    <marker id="ag" markerWidth="8" markerHeight="6" refX="8" refY="3" orient="auto">
      <path d="M0,0 L8,3 L0,6" fill="#22c55e"/>
    </marker>
    <marker id="ap" markerWidth="8" markerHeight="6" refX="8" refY="3" orient="auto">
      <path d="M0,0 L8,3 L0,6" fill="#8b5cf6"/>
    </marker>
    <marker id="ab" markerWidth="8" markerHeight="6" refX="8" refY="3" orient="auto">
      <path d="M0,0 L8,3 L0,6" fill="#3b82f6"/>
    </marker>
    <marker id="ay" markerWidth="8" markerHeight="6" refX="8" refY="3" orient="auto">
      <path d="M0,0 L8,3 L0,6" fill="#eab308"/>
    </marker>
    <marker id="ac" markerWidth="8" markerHeight="6" refX="8" refY="3" orient="auto">
      <path d="M0,0 L8,3 L0,6" fill="#06b6d4"/>
    </marker>
    <linearGradient id="sensor-bg" x1="0" y1="0" x2="0" y2="1">
      <stop offset="0%" stop-color="#0c0a09"/>
      <stop offset="100%" stop-color="#1c1917"/>
    </linearGradient>
    <linearGradient id="nexus-bg" x1="0" y1="0" x2="0" y2="1">
      <stop offset="0%" stop-color="#1e1b4b"/>
      <stop offset="100%" stop-color="#312e81"/>
    </linearGradient>
    <linearGradient id="ops-bg" x1="0" y1="0" x2="0" y2="1">
      <stop offset="0%" stop-color="#052e16"/>
      <stop offset="100%" stop-color="#14532d"/>
    </linearGradient>
    <linearGradient id="cc-bg" x1="0" y1="0" x2="0" y2="1">
      <stop offset="0%" stop-color="#0f172a"/>
      <stop offset="100%" stop-color="#1e293b"/>
    </linearGradient>
    <linearGradient id="exec-bg" x1="0" y1="0" x2="0" y2="1">
      <stop offset="0%" stop-color="#2a0a0a"/>
      <stop offset="100%" stop-color="#450a0a"/>
    </linearGradient>
    <linearGradient id="fb-bg" x1="0" y1="0" x2="0" y2="1">
      <stop offset="0%" stop-color="#1a1523"/>
      <stop offset="100%" stop-color="#2e1065"/>
    </linearGradient>
    <filter id="gl">
      <feGaussianBlur stdDeviation="2" result="b"/>
      <feComposite in="SourceGraphic" in2="b" operator="over"/>
    </filter>
  </defs>

  <rect width="1200" height="1520" fill="#09090b" rx="8"/>

  <text x="600" y="36" text-anchor="middle" fill="#f8fafc" font-size="16" font-weight="700" letter-spacing="3">SENTINEL NEXUS -- OPERATIONS LIFECYCLE</text>
  <line x1="330" y1="46" x2="870" y2="46" stroke="#334155" stroke-width="1"/>

  <!-- ═══════════════════════════════════════════════════════════════ -->
  <!-- PHASE 1: SENSOR NETWORK & TELEMETRY FORWARDING                -->
  <!-- ═══════════════════════════════════════════════════════════════ -->
  <rect x="30" y="60" width="1140" height="150" rx="6" fill="url(#sensor-bg)" stroke="#78716c" stroke-width="1" opacity="0.9"/>
  <text x="50" y="82" fill="#d6d3d1" font-size="10" font-weight="600" letter-spacing="2">PHASE 1 -- SENSOR NETWORK</text>
  <text x="1150" y="82" text-anchor="end" fill="#475569" font-size="9">Continuous · Per-Host</text>

  <!-- Sensor nodes -->
  <rect x="50" y="95" width="155" height="100" rx="4" fill="#1c1917" stroke="#f97316" stroke-width="1"/>
  <text x="127" y="115" text-anchor="middle" fill="#fed7aa" font-size="11" font-weight="600">eBPF Sensor (N)</text>
  <text x="60" y="135" fill="#94a3b8" font-size="9">Tracepoints + Kprobes</text>
  <text x="60" y="150" fill="#94a3b8" font-size="9">XDP enforcement layer</text>
  <text x="60" y="165" fill="#94a3b8" font-size="9">Ring buffer → Rust ingest</text>
  <text x="60" y="180" fill="#f97316" font-size="9" font-weight="600">core_hunter heuristic scoring</text>

  <rect x="225" y="95" width="155" height="100" rx="4" fill="#1c1917" stroke="#4ade80" stroke-width="1"/>
  <text x="302" y="115" text-anchor="middle" fill="#bbf7d0" font-size="11" font-weight="600">ML Pipeline</text>
  <text x="235" y="135" fill="#94a3b8" font-size="9">BeaconML (K-Means/DBSCAN)</text>
  <text x="235" y="150" fill="#94a3b8" font-size="9">Isolation Forest anomaly</text>
  <text x="235" y="165" fill="#94a3b8" font-size="9">DGA classifier</text>
  <text x="235" y="180" fill="#4ade80" font-size="9" font-weight="600">UEBA profile deviation</text>

  <rect x="420" y="105" width="175" height="80" rx="4" fill="#1c1917" stroke="#f97316" stroke-width="1"/>
  <text x="507" y="125" text-anchor="middle" fill="#fed7aa" font-size="11" font-weight="600">nexus_forwarder</text>
  <text x="430" y="145" fill="#94a3b8" font-size="9">Parquet spool (Snappy)</text>
  <text x="430" y="160" fill="#94a3b8" font-size="9">Sensor metadata embedding</text>
  <text x="430" y="175" fill="#f97316" font-size="9" font-weight="600">10s async extraction cycle</text>

  <!-- NATS JetStream -->
  <rect x="660" y="100" width="180" height="90" rx="4" fill="#2e1065" stroke="#8b5cf6" stroke-width="1.5" filter="url(#gl)"/>
  <text x="750" y="125" text-anchor="middle" fill="#ddd6fe" font-size="12" font-weight="700">NATS JetStream</text>
  <text x="670" y="145" fill="#c4b5fd" font-size="9">nexus.telemetry.ingest</text>
  <text x="670" y="160" fill="#c4b5fd" font-size="9">nexus.soar.execute</text>
  <text x="670" y="175" fill="#c4b5fd" font-size="9">nexus.training.rlhf</text>

  <!-- Concurrency Lock -->
  <rect x="900" y="105" width="250" height="80" rx="4" fill="#1c1917" stroke="#eab308" stroke-width="1"/>
  <text x="1025" y="125" text-anchor="middle" fill="#fef08a" font-size="11" font-weight="600">Redis Distributed Lock</text>
  <text x="910" y="145" fill="#94a3b8" font-size="9">nexus:active_operations_stacks</text>
  <text x="910" y="160" fill="#94a3b8" font-size="9">Prevents boot storms during</text>
  <text x="910" y="175" fill="#eab308" font-size="9" font-weight="600">massive lateral movement events</text>

  <!-- Arrows Phase 1 -->
  <line x1="207" y1="145" x2="223" y2="145" stroke="#f97316" stroke-width="1.5" marker-end="url(#ao)"/>
  <line x1="382" y1="145" x2="418" y2="145" stroke="#f97316" stroke-width="1.5" marker-end="url(#ao)"/>
  <line x1="597" y1="145" x2="658" y2="145" stroke="#8b5cf6" stroke-width="1.5" marker-end="url(#ap)"/>
  <line x1="842" y1="145" x2="898" y2="145" stroke="#eab308" stroke-width="1" stroke-dasharray="4,3" marker-end="url(#ay)"/>

  <!-- ═══════════════════════════════════════════════════════════════ -->
  <!-- PHASE 2: NEXUS CORE — AGENTIC SWARM ANALYSIS                  -->
  <!-- ═══════════════════════════════════════════════════════════════ -->
  <rect x="30" y="225" width="1140" height="200" rx="6" fill="url(#nexus-bg)" stroke="#4338ca" stroke-width="1" opacity="0.9"/>
  <text x="50" y="247" fill="#a5b4fc" font-size="10" font-weight="600" letter-spacing="2">PHASE 2 -- AGENTIC SWARM ANALYSIS</text>
  <text x="1150" y="247" text-anchor="end" fill="#475569" font-size="9">Event-Driven · Multi-Model Cross-Examination</text>

  <!-- S3 Data Lake -->
  <rect x="50" y="260" width="180" height="150" rx="4" fill="#1a1a2e" stroke="#eab308" stroke-width="1.5" filter="url(#gl)"/>
  <text x="140" y="283" text-anchor="middle" fill="#fef08a" font-size="12" font-weight="700">S3 Data Lake</text>
  <text x="60" y="303" fill="#94a3b8" font-size="9">Parquet cold storage</text>
  <text x="60" y="318" fill="#94a3b8" font-size="9">Network flows archive</text>
  <text x="60" y="333" fill="#94a3b8" font-size="9">ETW process trees</text>
  <text x="60" y="348" fill="#94a3b8" font-size="9">Telemetry time-series</text>
  <text x="60" y="368" fill="#eab308" font-size="9" font-weight="600">DuckDB queryable on-demand</text>
  <text x="60" y="398" fill="#fde047" font-size="9">↑ NATS telemetry persisted</text>

  <!-- Orchestrator -->
  <rect x="280" y="265" width="210" height="140" rx="4" fill="#312e81" stroke="#818cf8" stroke-width="1.5" filter="url(#gl)"/>
  <text x="385" y="288" text-anchor="middle" fill="#e0e7ff" font-size="12" font-weight="700">Orchestrator</text>
  <text x="290" y="308" fill="#a5b4fc" font-size="9">Event correlation engine</text>
  <text x="290" y="323" fill="#a5b4fc" font-size="9">Swarm verdict evaluator</text>
  <text x="290" y="338" fill="#a5b4fc" font-size="9">Concurrency lock check</text>
  <text x="290" y="353" fill="#a5b4fc" font-size="9">Stack lifecycle controller</text>
  <text x="290" y="373" fill="#818cf8" font-size="9" font-weight="600">CRITICAL threat → trigger</text>
  <text x="290" y="388" fill="#818cf8" font-size="9" font-weight="600">operations bootstrap</text>

  <!-- Agentic Swarm Models -->
  <rect x="540" y="260" width="150" height="65" rx="4" fill="#1e1b4b" stroke="#6366f1" stroke-width="1"/>
  <text x="615" y="280" text-anchor="middle" fill="#c7d2fe" font-size="10" font-weight="600">Model A · Detection</text>
  <text x="550" y="298" fill="#94a3b8" font-size="8">Threat pattern recognition</text>
  <text x="550" y="312" fill="#818cf8" font-size="8" font-weight="600">Sovereign fine-tuned (HF · vLLM)</text>

  <rect x="700" y="260" width="150" height="65" rx="4" fill="#1e1b4b" stroke="#6366f1" stroke-width="1"/>
  <text x="775" y="280" text-anchor="middle" fill="#c7d2fe" font-size="10" font-weight="600">Model B · Classify</text>
  <text x="710" y="298" fill="#94a3b8" font-size="8">ATT&amp;CK TTP mapping</text>
  <text x="710" y="312" fill="#818cf8" font-size="8" font-weight="600">MITRE framework alignment</text>

  <rect x="540" y="340" width="150" height="65" rx="4" fill="#1e1b4b" stroke="#a855f7" stroke-width="1"/>
  <text x="615" y="360" text-anchor="middle" fill="#d8b4fe" font-size="10" font-weight="600">Model C · Cross-Exam</text>
  <text x="550" y="378" fill="#94a3b8" font-size="8">Verdict validation</text>
  <text x="550" y="392" fill="#a855f7" font-size="8" font-weight="600">Frontier (Anthropic/Azure)</text>

  <rect x="700" y="340" width="150" height="65" rx="4" fill="#14532d" stroke="#4ade80" stroke-width="1"/>
  <text x="775" y="360" text-anchor="middle" fill="#bbf7d0" font-size="10" font-weight="600">Model D · Reward</text>
  <text x="710" y="378" fill="#94a3b8" font-size="8">DPO/IPO critic model</text>
  <text x="710" y="392" fill="#4ade80" font-size="8" font-weight="600">DPO/IPO aligned (↑ Phase 6)</text>

  <!-- worker_soar -->
  <rect x="900" y="265" width="250" height="140" rx="4" fill="#1c1917" stroke="#f97316" stroke-width="1"/>
  <text x="1025" y="288" text-anchor="middle" fill="#fed7aa" font-size="11" font-weight="600">worker_soar (Rust)</text>
  <text x="910" y="308" fill="#94a3b8" font-size="9">Subscribes: nexus.soar.execute</text>
  <text x="910" y="323" fill="#94a3b8" font-size="9">Reads containment.toml schema</text>
  <text x="910" y="338" fill="#94a3b8" font-size="9">Validates required fields</text>
  <text x="910" y="353" fill="#94a3b8" font-size="9">Interpolates threat telemetry</text>
  <text x="910" y="373" fill="#f97316" font-size="9" font-weight="600">Synthesizes ExecutionPlan JSON</text>
  <text x="910" y="393" fill="#f97316" font-size="9" font-weight="600">→ POST to n8n webhook</text>

  <!-- Arrows Phase 2 -->
  <line x1="232" y1="335" x2="278" y2="335" stroke="#eab308" stroke-width="1" marker-end="url(#ay)"/>
  <line x1="492" y1="310" x2="538" y2="290" stroke="#6366f1" stroke-width="1" marker-end="url(#a)"/>
  <line x1="492" y1="340" x2="538" y2="360" stroke="#a855f7" stroke-width="1" marker-end="url(#a)"/>
  <line x1="852" y1="335" x2="898" y2="335" stroke="#f97316" stroke-width="1.5" marker-end="url(#ao)"/>
  <text x="875" y="330" fill="#f97316" font-size="8">verdict</text>

  <!-- NATS down arrow -->
  <line x1="750" y1="192" x2="750" y2="258" stroke="#8b5cf6" stroke-width="1.5" marker-end="url(#ap)"/>
  <line x1="750" y1="192" x2="140" y2="258" stroke="#eab308" stroke-width="1" stroke-dasharray="4,3" marker-end="url(#ay)"/>
  <text x="420" y="220" fill="#eab308" font-size="8">telemetry → cold storage</text>

  <!-- ═══════════════════════════════════════════════════════════════ -->
  <!-- PHASE 3: OPERATIONS BOOTSTRAP                                  -->
  <!-- ═══════════════════════════════════════════════════════════════ -->
  <rect x="30" y="440" width="1140" height="155" rx="6" fill="url(#ops-bg)" stroke="#22c55e" stroke-width="1" opacity="0.9"/>
  <text x="50" y="462" fill="#86efac" font-size="10" font-weight="600" letter-spacing="2">PHASE 3 -- OPERATIONS BOOTSTRAP</text>
  <text x="1150" y="462" text-anchor="end" fill="#475569" font-size="9">Automated · trigger-incident.sh</text>

  <!-- Bootstrap pipeline steps -->
  <rect x="50" y="475" width="110" height="50" rx="4" fill="#14532d" stroke="#4ade80" stroke-width="1"/>
  <text x="105" y="496" text-anchor="middle" fill="#bbf7d0" font-size="9" font-weight="600">Pre-flight</text>
  <text x="105" y="512" text-anchor="middle" fill="#94a3b8" font-size="8">tools + .env + TLS</text>

  <rect x="175" y="475" width="110" height="50" rx="4" fill="#14532d" stroke="#4ade80" stroke-width="1"/>
  <text x="230" y="496" text-anchor="middle" fill="#bbf7d0" font-size="9" font-weight="600">Network</text>
  <text x="230" y="512" text-anchor="middle" fill="#94a3b8" font-size="8">deepnet bridge</text>

  <rect x="300" y="475" width="110" height="50" rx="4" fill="#14532d" stroke="#4ade80" stroke-width="1"/>
  <text x="355" y="496" text-anchor="middle" fill="#bbf7d0" font-size="9" font-weight="600">TLS + Secrets</text>
  <text x="355" y="512" text-anchor="middle" fill="#94a3b8" font-size="8">cert-gen + env-gen</text>

  <rect x="425" y="475" width="135" height="50" rx="4" fill="#14532d" stroke="#eab308" stroke-width="1"/>
  <text x="492" y="496" text-anchor="middle" fill="#fef08a" font-size="9" font-weight="600">Context Injection</text>
  <text x="492" y="512" text-anchor="middle" fill="#94a3b8" font-size="8">DuckDB → S3 Parquet</text>

  <rect x="575" y="475" width="135" height="50" rx="4" fill="#14532d" stroke="#4ade80" stroke-width="1"/>
  <text x="642" y="496" text-anchor="middle" fill="#bbf7d0" font-size="9" font-weight="600">Infra Stack</text>
  <text x="642" y="512" text-anchor="middle" fill="#94a3b8" font-size="8">Traefik + Authentik</text>

  <rect x="725" y="475" width="130" height="50" rx="4" fill="#14532d" stroke="#3b82f6" stroke-width="1"/>
  <text x="790" y="496" text-anchor="middle" fill="#93c5fd" font-size="9" font-weight="600">Health Gate</text>
  <text x="790" y="512" text-anchor="middle" fill="#94a3b8" font-size="8">PG → Redis → SSO</text>

  <rect x="870" y="475" width="140" height="50" rx="4" fill="#052e16" stroke="#22c55e" stroke-width="1.5" filter="url(#gl)"/>
  <text x="940" y="496" text-anchor="middle" fill="#86efac" font-size="9" font-weight="700">Interfaces Up</text>
  <text x="940" y="512" text-anchor="middle" fill="#86efac" font-size="8">n8n + WebUI online</text>

  <!-- Step arrows -->
  <line x1="162" y1="500" x2="173" y2="500" stroke="#4ade80" stroke-width="1" marker-end="url(#ag)"/>
  <line x1="287" y1="500" x2="298" y2="500" stroke="#4ade80" stroke-width="1" marker-end="url(#ag)"/>
  <line x1="412" y1="500" x2="423" y2="500" stroke="#4ade80" stroke-width="1" marker-end="url(#ag)"/>
  <line x1="562" y1="500" x2="573" y2="500" stroke="#4ade80" stroke-width="1" marker-end="url(#ag)"/>
  <line x1="712" y1="500" x2="723" y2="500" stroke="#4ade80" stroke-width="1" marker-end="url(#ag)"/>
  <line x1="857" y1="500" x2="868" y2="500" stroke="#22c55e" stroke-width="1.5" marker-end="url(#ag)"/>

  <!-- Context injection detail -->
  <rect x="50" y="535" width="960" height="45" rx="4" fill="#0a1a0a" stroke="#22c55e" stroke-width="0.5"/>
  <text x="60" y="555" fill="#86efac" font-size="9" font-weight="600">workspace_context.json</text>
  <text x="310" y="555" fill="#94a3b8" font-size="9">Air-gapped incident context extracted via DuckDB → mounted read-only into WebUI container → immediate operator awareness</text>
  <line x1="492" y1="527" x2="492" y2="533" stroke="#eab308" stroke-width="1" marker-end="url(#ay)"/>

  <!-- Orchestrator trigger arrow -->
  <line x1="385" y1="407" x2="385" y2="438" stroke="#22c55e" stroke-width="1.5" marker-end="url(#ag)"/>
  <text x="395" y="430" fill="#86efac" font-size="8">trigger</text>

  <!-- ═══════════════════════════════════════════════════════════════ -->
  <!-- PHASE 4: OPERATOR C&C INTERFACE                                -->
  <!-- ═══════════════════════════════════════════════════════════════ -->
  <rect x="30" y="600" width="1140" height="235" rx="6" fill="url(#cc-bg)" stroke="#3b82f6" stroke-width="1" opacity="0.9"/>
  <text x="50" y="622" fill="#93c5fd" font-size="10" font-weight="600" letter-spacing="2">PHASE 4 -- OPERATOR COMMAND &amp; CONTROL</text>
  <text x="1150" y="622" text-anchor="end" fill="#475569" font-size="9">Human-in-the-Loop · Zero-Trust · Ephemeral</text>

  <!-- Traefik Ingress -->
  <rect x="50" y="635" width="180" height="85" rx="4" fill="#1e293b" stroke="#60a5fa" stroke-width="1"/>
  <text x="140" y="655" text-anchor="middle" fill="#bfdbfe" font-size="11" font-weight="600">Traefik v3 Ingress</text>
  <text x="60" y="675" fill="#94a3b8" font-size="9">TLS termination (TLS 1.2+)</text>
  <text x="60" y="690" fill="#94a3b8" font-size="9">IP allowlist + rate limit</text>
  <text x="60" y="705" fill="#3b82f6" font-size="9" font-weight="600">ForwardAuth → Authentik</text>

  <!-- Authentik SSO -->
  <rect x="50" y="730" width="180" height="85" rx="4" fill="#1e293b" stroke="#a855f7" stroke-width="1"/>
  <text x="140" y="750" text-anchor="middle" fill="#d8b4fe" font-size="11" font-weight="600">Authentik SSO</text>
  <text x="60" y="770" fill="#94a3b8" font-size="9">OIDC / OAuth2 provider</text>
  <text x="60" y="785" fill="#94a3b8" font-size="9">tmpfs volatile databases</text>
  <text x="60" y="800" fill="#a855f7" font-size="9" font-weight="600">Blueprint auto-provisioned</text>

  <!-- Open WebUI (operator workbench) -->
  <rect x="280" y="635" width="340" height="180" rx="4" fill="#0f172a" stroke="#06b6d4" stroke-width="1.5" filter="url(#gl)"/>
  <text x="450" y="658" text-anchor="middle" fill="#67e8f9" font-size="13" font-weight="700">Open WebUI -- Operator Terminal</text>
  <text x="300" y="680" fill="#94a3b8" font-size="9" font-weight="600">Sovereign Inference Routing:</text>
  <text x="310" y="695" fill="#94a3b8" font-size="9">Sovereign LLM -- spatial telemetry analysis</text>
  <text x="310" y="710" fill="#94a3b8" font-size="9">Frontier API (Anthropic/Azure) -- payload reverse eng.</text>
  <text x="300" y="733" fill="#94a3b8" font-size="9" font-weight="600">Operator Actions:</text>
  <text x="310" y="748" fill="#06b6d4" font-size="9">• Interrogate injected incident context</text>
  <text x="310" y="763" fill="#06b6d4" font-size="9">• Pivot: cross-reference IOCs across data lake</text>
  <text x="310" y="778" fill="#06b6d4" font-size="9">• Download forensic artifacts</text>
  <text x="310" y="793" fill="#06b6d4" font-size="9">• Confirm/dismiss swarm verdict → RLHF webhook</text>
  <text x="310" y="808" fill="#eab308" font-size="9" font-weight="600">• Override: manual containment commands</text>

  <!-- n8n SOAR Engine -->
  <rect x="670" y="635" width="230" height="110" rx="4" fill="#1e293b" stroke="#f97316" stroke-width="1"/>
  <text x="785" y="658" text-anchor="middle" fill="#fed7aa" font-size="11" font-weight="600">n8n SOAR Engine</text>
  <text x="680" y="678" fill="#94a3b8" font-size="9">Master_Containment workflow</text>
  <text x="680" y="693" fill="#94a3b8" font-size="9">Webhook: /master-containment</text>
  <text x="680" y="708" fill="#94a3b8" font-size="9">Webhook: /rlhf-feedback</text>
  <text x="680" y="728" fill="#f97316" font-size="9" font-weight="600">Deterministic state machine</text>

  <!-- containment.toml -->
  <rect x="670" y="755" width="230" height="65" rx="4" fill="#1e293b" stroke="#eab308" stroke-width="1"/>
  <text x="785" y="775" text-anchor="middle" fill="#fef08a" font-size="11" font-weight="600">containment.toml</text>
  <text x="680" y="795" fill="#94a3b8" font-size="9">EDR + Firewall HTTP contracts</text>
  <text x="680" y="810" fill="#eab308" font-size="9" font-weight="600">Retry policies, validation rules</text>

  <!-- ExecutionPlan -->
  <rect x="940" y="650" width="210" height="80" rx="4" fill="#312e81" stroke="#818cf8" stroke-width="1.5" filter="url(#gl)"/>
  <text x="1045" y="673" text-anchor="middle" fill="#e0e7ff" font-size="11" font-weight="700">ExecutionPlan</text>
  <text x="950" y="693" fill="#a5b4fc" font-size="9">Pre-formatted HTTP requests</text>
  <text x="950" y="708" fill="#a5b4fc" font-size="9">Method + URL + headers + body</text>
  <text x="950" y="723" fill="#818cf8" font-size="9" font-weight="600">Ready for n8n iteration</text>

  <!-- Phase 4 arrows -->
  <line x1="232" y1="675" x2="278" y2="675" stroke="#60a5fa" stroke-width="1" marker-end="url(#ab)"/>
  <text x="255" y="668" fill="#60a5fa" font-size="7">SSO</text>
  <line x1="140" y1="722" x2="140" y2="728" stroke="#a855f7" stroke-width="1"/>
  <line x1="622" y1="730" x2="668" y2="700" stroke="#f97316" stroke-width="1" stroke-dasharray="4,3" marker-end="url(#ao)"/>
  <text x="630" y="720" fill="#f97316" font-size="7">feedback</text>
  <line x1="1045" y1="407" x2="1045" y2="648" stroke="#f97316" stroke-width="1.5" stroke-dasharray="4,3" marker-end="url(#ao)"/>
  <text x="1055" y="530" fill="#f97316" font-size="8">POST plan</text>
  <line x1="940" y1="690" x2="902" y2="690" stroke="#818cf8" stroke-width="1" marker-end="url(#a)"/>

  <!-- ═══════════════════════════════════════════════════════════════ -->
  <!-- PHASE 5: CONTAINMENT EXECUTION                                 -->
  <!-- ═══════════════════════════════════════════════════════════════ -->
  <rect x="30" y="855" width="1140" height="195" rx="6" fill="url(#exec-bg)" stroke="#ef4444" stroke-width="1" opacity="0.9"/>
  <text x="50" y="877" fill="#fca5a5" font-size="10" font-weight="600" letter-spacing="2">PHASE 5 -- CONTAINMENT EXECUTION</text>
  <text x="1150" y="877" text-anchor="end" fill="#475569" font-size="9">Deterministic · Error-Branched · Audited</text>

  <!-- Workflow stages -->
  <rect x="50" y="895" width="155" height="60" rx="4" fill="#450a0a" stroke="#f97316" stroke-width="1"/>
  <text x="127" y="915" text-anchor="middle" fill="#fed7aa" font-size="10" font-weight="600">Init Tracker</text>
  <text x="127" y="935" text-anchor="middle" fill="#94a3b8" font-size="8">Count steps, init state</text>
  <text x="127" y="948" text-anchor="middle" fill="#94a3b8" font-size="8"> </text>

  <rect x="225" y="895" width="155" height="60" rx="4" fill="#450a0a" stroke="#f97316" stroke-width="1"/>
  <text x="302" y="915" text-anchor="middle" fill="#fed7aa" font-size="10" font-weight="600">Iterate Steps</text>
  <text x="302" y="935" text-anchor="middle" fill="#94a3b8" font-size="8">Split execution_steps[]</text>

  <rect x="400" y="895" width="170" height="60" rx="4" fill="#450a0a" stroke="#ef4444" stroke-width="1.5" filter="url(#gl)"/>
  <text x="485" y="915" text-anchor="middle" fill="#fca5a5" font-size="10" font-weight="700">Execute API Call</text>
  <text x="485" y="935" text-anchor="middle" fill="#fca5a5" font-size="8">HTTP request to target</text>

  <!-- Success / Failure branches -->
  <rect x="400" y="970" width="105" height="40" rx="4" fill="#052e16" stroke="#22c55e" stroke-width="1"/>
  <text x="452" y="994" text-anchor="middle" fill="#86efac" font-size="9" font-weight="600">✓ Success</text>

  <rect x="520" y="970" width="105" height="40" rx="4" fill="#450a0a" stroke="#ef4444" stroke-width="1"/>
  <text x="572" y="994" text-anchor="middle" fill="#fca5a5" font-size="9" font-weight="600">✗ Failure</text>

  <!-- EDR Target -->
  <rect x="650" y="890" width="195" height="70" rx="4" fill="#450a0a" stroke="#ef4444" stroke-width="1"/>
  <text x="747" y="910" text-anchor="middle" fill="#fca5a5" font-size="10" font-weight="600">EDR API (isolate_host)</text>
  <text x="660" y="930" fill="#94a3b8" font-size="8">POST /v2/devices/isolate</text>
  <text x="660" y="945" fill="#ef4444" font-size="8" font-weight="600">Bearer ${EDR_API_KEY}</text>

  <!-- FW Target -->
  <rect x="650" y="970" width="195" height="70" rx="4" fill="#450a0a" stroke="#ef4444" stroke-width="1"/>
  <text x="747" y="990" text-anchor="middle" fill="#fca5a5" font-size="10" font-weight="600">Firewall API (block_ip)</text>
  <text x="660" y="1010" fill="#94a3b8" font-size="8">PUT /api/v1/objects/address/{ip}</text>
  <text x="660" y="1025" fill="#ef4444" font-size="8" font-weight="600">X-API-Key: ${FW_API_KEY}</text>

  <!-- Aggregate Results -->
  <rect x="880" y="895" width="270" height="105" rx="4" fill="#450a0a" stroke="#eab308" stroke-width="1.5"/>
  <text x="1015" y="918" text-anchor="middle" fill="#fef08a" font-size="11" font-weight="600">Aggregate Results</text>
  <text x="895" y="940" fill="#22c55e" font-size="9" font-weight="600">CONTAINED</text>
  <text x="990" y="940" fill="#94a3b8" font-size="9">→ all steps passed</text>
  <text x="895" y="958" fill="#eab308" font-size="9" font-weight="600">PARTIAL_FAILURE</text>
  <text x="1028" y="958" fill="#94a3b8" font-size="9">→ mixed results</text>
  <text x="895" y="976" fill="#ef4444" font-size="9" font-weight="600">FAILED</text>
  <text x="960" y="976" fill="#94a3b8" font-size="9">→ all steps failed</text>
  <text x="895" y="994" fill="#eab308" font-size="9" font-weight="600">Full error manifest included</text>

  <!-- Phase 5 arrows -->
  <line x1="207" y1="925" x2="223" y2="925" stroke="#f97316" stroke-width="1" marker-end="url(#ao)"/>
  <line x1="382" y1="925" x2="398" y2="925" stroke="#ef4444" stroke-width="1.5" marker-end="url(#ar)"/>
  <line x1="572" y1="925" x2="648" y2="925" stroke="#ef4444" stroke-width="1" stroke-dasharray="4,3" marker-end="url(#ar)"/>
  <line x1="572" y1="925" x2="648" y2="1005" stroke="#ef4444" stroke-width="1" stroke-dasharray="4,3" marker-end="url(#ar)"/>
  <line x1="452" y1="957" x2="452" y2="968" stroke="#22c55e" stroke-width="1" marker-end="url(#ag)"/>
  <line x1="520" y1="957" x2="572" y2="968" stroke="#ef4444" stroke-width="1" marker-end="url(#ar)"/>
  <line x1="507" y1="990" x2="878" y2="950" stroke="#eab308" stroke-width="1" marker-end="url(#ay)"/>
  <line x1="627" y1="990" x2="878" y2="970" stroke="#eab308" stroke-width="1" marker-end="url(#ay)"/>

  <!-- n8n down arrow from Phase 4 -->
  <line x1="785" y1="747" x2="785" y2="853" stroke="#f97316" stroke-width="1.5" marker-end="url(#ao)"/>
  <line x1="785" y1="853" x2="127" y2="893" stroke="#f97316" stroke-width="1" marker-end="url(#ao)"/>

  <!-- ═══════════════════════════════════════════════════════════════ -->
  <!-- PHASE 6: FEEDBACK LOOP & SCORCHED-EARTH TEARDOWN               -->
  <!-- ═══════════════════════════════════════════════════════════════ -->
  <rect x="30" y="1070" width="1140" height="220" rx="6" fill="url(#fb-bg)" stroke="#8b5cf6" stroke-width="1" opacity="0.9"/>
  <text x="50" y="1092" fill="#c4b5fd" font-size="10" font-weight="600" letter-spacing="2">PHASE 6 -- RLHF FEEDBACK &amp; SCORCHED-EARTH TEARDOWN</text>
  <text x="1150" y="1092" text-anchor="end" fill="#475569" font-size="9">Closed-Loop · Self-Terminating</text>

  <!-- RLHF Path -->
  <rect x="50" y="1110" width="200" height="75" rx="4" fill="#2e1065" stroke="#a855f7" stroke-width="1"/>
  <text x="150" y="1130" text-anchor="middle" fill="#d8b4fe" font-size="10" font-weight="600">Operator Verdict</text>
  <text x="60" y="1150" fill="#94a3b8" font-size="9">Confirm or dismiss swarm verdict</text>
  <text x="60" y="1165" fill="#94a3b8" font-size="9">in Open WebUI → n8n webhook</text>
  <text x="60" y="1180" fill="#a855f7" font-size="9" font-weight="600">/rlhf-feedback</text>

  <rect x="280" y="1110" width="155" height="75" rx="4" fill="#2e1065" stroke="#8b5cf6" stroke-width="1"/>
  <text x="357" y="1130" text-anchor="middle" fill="#ddd6fe" font-size="10" font-weight="600">NATS Publish</text>
  <text x="290" y="1150" fill="#94a3b8" font-size="9">nexus.training.rlhf</text>
  <text x="290" y="1165" fill="#94a3b8" font-size="9">incident_id + verdict</text>
  <text x="290" y="1180" fill="#8b5cf6" font-size="9" font-weight="600">+ operator_action</text>

  <rect x="465" y="1110" width="170" height="75" rx="4" fill="#1c1917" stroke="#f97316" stroke-width="1"/>
  <text x="550" y="1130" text-anchor="middle" fill="#fed7aa" font-size="10" font-weight="600">worker_rlhf (Rust)</text>
  <text x="475" y="1150" fill="#94a3b8" font-size="9">Consumes NATS topic</text>
  <text x="475" y="1165" fill="#94a3b8" font-size="9">Spools Gold Label Parquet</text>
  <text x="475" y="1180" fill="#f97316" font-size="9" font-weight="600">→ Fine-tunes Model D (DPO/IPO)</text>

  <!-- RLHF arrows -->
  <line x1="252" y1="1147" x2="278" y2="1147" stroke="#8b5cf6" stroke-width="1" marker-end="url(#ap)"/>
  <line x1="437" y1="1147" x2="463" y2="1147" stroke="#f97316" stroke-width="1" marker-end="url(#ao)"/>

  <!-- Feedback to Model D (curved up) -->
  <path d="M550 1108 C550 1060 775 1050 775 407" fill="none" stroke="#4ade80" stroke-width="1" stroke-dasharray="6,3" marker-end="url(#ag)"/>
  <text x="680" y="1070" fill="#4ade80" font-size="8">reward model update ↑</text>

  <!-- Teardown Path -->
  <rect x="670" y="1110" width="200" height="75" rx="4" fill="#2e1065" stroke="#eab308" stroke-width="1"/>
  <text x="770" y="1130" text-anchor="middle" fill="#fef08a" font-size="10" font-weight="600">Orchestrator Callback</text>
  <text x="680" y="1150" fill="#94a3b8" font-size="9">Receives STATUS from n8n</text>
  <text x="680" y="1165" fill="#94a3b8" font-size="9">Releases Redis lock</text>
  <text x="680" y="1180" fill="#eab308" font-size="9" font-weight="600">Logs finalized report</text>

  <rect x="900" y="1100" width="250" height="95" rx="4" fill="#450a0a" stroke="#ef4444" stroke-width="1.5" filter="url(#gl)"/>
  <text x="1025" y="1123" text-anchor="middle" fill="#fca5a5" font-size="12" font-weight="700">teardown-incident.sh</text>
  <text x="910" y="1143" fill="#94a3b8" font-size="9">1. webui down → n8n down → infra down</text>
  <text x="910" y="1158" fill="#94a3b8" font-size="9">2. Verify containers stopped</text>
  <text x="910" y="1173" fill="#94a3b8" font-size="9">3. Purge context + execution logs</text>
  <text x="910" y="1188" fill="#ef4444" font-size="9" font-weight="600">--deep: wipe secrets, certs, network</text>

  <!-- Teardown arrows -->
  <line x1="1015" y1="1002" x2="770" y2="1108" stroke="#eab308" stroke-width="1.5" marker-end="url(#ay)"/>
  <text x="890" y="1050" fill="#eab308" font-size="8">STATUS callback</text>
  <line x1="872" y1="1147" x2="898" y2="1147" stroke="#ef4444" stroke-width="1.5" marker-end="url(#ar)"/>

  <!-- ═══════════════════════════════════════════════════════════════ -->
  <!-- ZERO STATE — POST-TEARDOWN                                     -->
  <!-- ═══════════════════════════════════════════════════════════════ -->
  <rect x="30" y="1310" width="1140" height="55" rx="6" fill="#0a0a0a" stroke="#475569" stroke-width="1" stroke-dasharray="6,3"/>
  <text x="600" y="1335" text-anchor="middle" fill="#64748b" font-size="11" font-weight="600" letter-spacing="2">ZERO STATE -- ATTACK SURFACE RETURNED TO ZERO</text>
  <text x="600" y="1355" text-anchor="middle" fill="#475569" font-size="9">Only forensic artifacts persist (WebUI RAG data, operator chat history). All containers, databases, contexts, and secrets destroyed.</text>

  <!-- Teardown to zero state -->
  <line x1="1025" y1="1197" x2="1025" y2="1308" stroke="#ef4444" stroke-width="1.5" stroke-dasharray="4,3" marker-end="url(#ar)"/>
  <text x="1035" y="1260" fill="#fca5a5" font-size="8">scorched earth</text>

  <!-- ═══════════════════════════════════════════════════════════════ -->
  <!-- LEGEND                                                          -->
  <!-- ═══════════════════════════════════════════════════════════════ -->
  <text x="50" y="1395" fill="#475569" font-size="9" font-weight="600" letter-spacing="1">LEGEND</text>
  <line x1="50" y1="1403" x2="1150" y2="1403" stroke="#1e293b" stroke-width="0.5"/>

  <!-- Row 1 -->
  <rect x="50" y="1412" width="14" height="14" rx="2" fill="#1c1917" stroke="#f97316" stroke-width="1"/>
  <text x="72" y="1424" fill="#94a3b8" font-size="9">Rust workers / data pipeline</text>

  <rect x="280" y="1412" width="14" height="14" rx="2" fill="#14532d" stroke="#4ade80" stroke-width="1"/>
  <text x="302" y="1424" fill="#94a3b8" font-size="9">ML / bootstrap / validation</text>

  <rect x="510" y="1412" width="14" height="14" rx="2" fill="#1e293b" stroke="#60a5fa" stroke-width="1"/>
  <text x="532" y="1424" fill="#94a3b8" font-size="9">API / operator interface</text>

  <rect x="720" y="1412" width="14" height="14" rx="2" fill="#450a0a" stroke="#ef4444" stroke-width="1"/>
  <text x="742" y="1424" fill="#94a3b8" font-size="9">Containment / enforcement</text>

  <rect x="960" y="1412" width="14" height="14" rx="2" fill="#2e1065" stroke="#8b5cf6" stroke-width="1"/>
  <text x="982" y="1424" fill="#94a3b8" font-size="9">Messaging / NATS / RLHF</text>

  <!-- Row 2 -->
  <line x1="50" y1="1450" x2="90" y2="1450" stroke="#64748b" stroke-width="1.5" marker-end="url(#a)"/>
  <text x="100" y="1454" fill="#94a3b8" font-size="9">Data flow</text>

  <line x1="210" y1="1450" x2="250" y2="1450" stroke="#64748b" stroke-width="1" stroke-dasharray="4,3" marker-end="url(#a)"/>
  <text x="260" y="1454" fill="#94a3b8" font-size="9">Async / enforcement path</text>

  <rect x="430" y="1440" width="14" height="14" rx="2" fill="#1a1a2e" stroke="#eab308" stroke-width="1.5" filter="url(#gl)"/>
  <text x="452" y="1454" fill="#94a3b8" font-size="9">Critical data store / state</text>

  <rect x="660" y="1440" width="14" height="14" rx="2" fill="#312e81" stroke="#818cf8" stroke-width="1.5" filter="url(#gl)"/>
  <text x="682" y="1454" fill="#94a3b8" font-size="9">Core system component</text>

  <!-- Phase flow indicators -->
  <text x="50" y="1490" fill="#334155" font-size="8">PHASE 1 (Sensor) → PHASE 2 (Swarm Analysis) → PHASE 3 (Bootstrap) → PHASE 4 (Operator C&amp;C) → PHASE 5 (Containment) → PHASE 6 (Feedback/Teardown) → ZERO STATE</text>
  <text x="1150" y="1490" text-anchor="end" fill="#334155" font-size="8">Sentinel Nexus v2.0</text>
</svg>
